<svg xmlns="http://www.w3.org/2000/svg" version="1.1" viewBox="-5.0 -10.0 110.0 135.0">
 <path d="m92.004 62.254-8.8555-8.8555-8.8555 8.8555-3.3945-3.3945 8.8555-8.8555-8.8555-8.8555 3.3945-3.3945 8.8555 8.8555 8.8555-8.8555 3.3945 3.3945-8.8555 8.8555 8.8555 8.8555zm-31.109-52.68c-1.4648-2.332-4.4961-2.875-6.2305-1.2227l-22.293 21.297h-22.051c-3.1328 0-5.7148 2.5859-5.7148 5.7148v29.273c0 3.1562 2.6094 5.7148 5.7148 5.7148h22.051l22.293 21.297c2.2695 2.168 6.7578 0.42578 6.7578-3.2656v-76.766c0-0.71875-0.17578-1.418-0.52734-2.043z" fill-rule="evenodd"/>
<text x="0.0" y="117.5" font-size="5.0" font-weight="bold" font-family="Arbeit Regular, Helvetica, Arial-Unicode, Arial, Sans-serif" fill="#000000">Created by Proicon</text><text x="0.0" y="122.5" font-size="5.0" font-weight="bold" font-family="Arbeit Regular, Helvetica, Arial-Unicode, Arial, Sans-serif" fill="#000000">from Noun Project</text></svg>