<svg xmlns="http://www.w3.org/2000/svg" version="1.1" viewBox="-5.0 -10.0 110.0 135.0">
 <path d="m84.98 22.543c13.859 15.648 13.859 39.262 0 54.91-2.0703 2.3398-4.3086-0.71094-5.5352-1.9336-0.89453-0.89453-0.94141-2.3281-0.10547-3.2773 11.141-12.707 11.141-31.777 0-44.48-1.8086-2.0625 0.69531-3.8672 2.1484-5.3203 0.98047-0.98828 2.5703-0.9375 3.4922 0.10156zm-11.664 11.812c-0.89844-1.1094-2.5547-1.1953-3.5625-0.1875-1.5078 1.5078-3.8516 3.168-2.2422 5.2266 4.8594 6.2148 4.8594 14.996 0 21.207-1.6094 2.0586 0.73438 3.7188 2.2422 5.2266 1.0078 1.0078 2.6641 0.92188 3.5625-0.1875 7.3633-9.1055 7.3633-22.184 0-31.285zm-42.723-5.2734 22.648-18.758c1.8984-1.5703 4.7109-0.14453 4.7109 2.2148h0.003906v74.914c0 2.3945-2.832 3.8594-4.8242 2.125l-22.539-18.668h-14.766c-6.1719 0-11.203-5.0273-11.203-11.203v-19.422c0-6.1758 5.0273-11.203 11.203-11.203z" fill-rule="evenodd"/>
<text x="0.0" y="117.5" font-size="5.0" font-weight="bold" font-family="Arbeit Regular, Helvetica, Arial-Unicode, Arial, Sans-serif" fill="#000000">Created by Melisa Lutfiani</text><text x="0.0" y="122.5" font-size="5.0" font-weight="bold" font-family="Arbeit Regular, Helvetica, Arial-Unicode, Arial, Sans-serif" fill="#000000">from Noun Project</text></svg>